<svg xmlns="http://www.w3.org/2000/svg" viewBox="0 0 375 150"><path fill="#ec1d29" d="M 13.293 108.84 C 6.773 106.578 4.938 102.84 4.652 91.262 L 4.438 82.535 L 18.656 68.41 L 59.938 68.41 L 59.648 70.668 C 59.109 74.848 56.188 78.875 52.207 80.918 C 50.215 81.938 50.121 81.945 34.27 82.066 L 18.34 82.188 L 18.34 87.801 C 18.34 93.414 18.02 96.227 20.074 96.297 L 21.246 96.336 L 35.328 96.336 C 50.434 96.336 51.902 96.512 54.273 98.609 C 56.746 100.797 58.781 104.488 59.594 108.258 L 59.895 109.652 L 37.727 109.641 C 17.383 109.625 15.371 109.562 13.293 108.84 Z M 4.828 52.441 C 5.531 48.031 8.926 43.52 12.902 41.715 C 15.133 40.703 15.133 40.703 37.52 40.582 L 59.906 40.457 L 59.598 42.297 C 58.863 46.688 55.82 51.23 52.371 53.086 C 50.656 54.008 50.324 54.023 27.586 54.141 L 4.539 54.262 Z M 4.828 52.441 " fill-rule="nonzero" /></svg>