<svg xmlns="http://www.w3.org/2000/svg" width="500" zoomAndPan="magnify" viewBox="0 0 375 150" height="200" preserveAspectRatio="xMidYMid meet" version="1"><defs><clipPath id="15a6896baa"><path d="M 4.438 40 L 59.938 40 L 59.938 110 L 4.438 110 Z M 4.438 40 " clip-rule="nonzero" /></clipPath><clipPath id="8f18a6696f"><path d="M 338.77 113.117 L 347.02 113.117 L 347.02 124.367 L 338.77 124.367 Z M 338.77 113.117 " clip-rule="nonzero" /></clipPath><clipPath id="23fb7da088"><rect x="0" width="315" y="0" height="123" /></clipPath></defs><g clip-path="url(#15a6896baa)"><path fill="#ec1d29" d="M 13.293 108.84 C 6.773 106.578 4.938 102.84 4.652 91.262 L 4.438 82.535 L 18.656 68.41 L 59.938 68.41 L 59.648 70.668 C 59.109 74.848 56.188 78.875 52.207 80.918 C 50.215 81.938 50.121 81.945 34.27 82.066 L 18.34 82.188 L 18.34 87.801 C 18.34 93.414 18.02 96.227 20.074 96.297 L 21.246 96.336 L 35.328 96.336 C 50.434 96.336 51.902 96.512 54.273 98.609 C 56.746 100.797 58.781 104.488 59.594 108.258 L 59.895 109.652 L 37.727 109.641 C 17.383 109.625 15.371 109.562 13.293 108.84 Z M 4.828 52.441 C 5.531 48.031 8.926 43.52 12.902 41.715 C 15.133 40.703 15.133 40.703 37.52 40.582 L 59.906 40.457 L 59.598 42.297 C 58.863 46.688 55.82 51.23 52.371 53.086 C 50.656 54.008 50.324 54.023 27.586 54.141 L 4.539 54.262 Z M 4.828 52.441 " fill-rule="nonzero" /></g><g clip-path="url(#8f18a6696f)"><path fill="#2e435e" d="M 347.02 119.527 L 347.02 113.438 L 338.77 113.438 L 338.77 124.047 L 340.934 124.023 Z M 347.02 119.527 " fill-rule="nonzero" /></g><g transform="matrix(1, 0, 0, 1, 60, 14)"><g clip-path="url(#23fb7da088)"><g transform="translate(0.094, 95.261)"><path d="M 55.141 0 C 53.285 0 51.801 -0.758 50.688 -2.281 L 27.812 -32.375 L 36.828 -41.578 L 60.484 -10.297 C 61.398 -9.035 61.859 -7.68 61.859 -6.234 C 61.859 -4.391 61.164 -2.891 59.781 -1.734 C 58.395 -0.578 56.848 0 55.141 0 Z M 56.328 -69.781 C 57.91 -69.781 59.211 -69.133 60.234 -67.844 C 61.254 -66.562 61.766 -65.258 61.766 -63.938 C 61.766 -62.551 61.172 -61.266 59.984 -60.078 L 18.516 -20.391 L 18.016 -34.547 L 51.469 -67.5 C 52.988 -69.02 54.609 -69.781 56.328 -69.781 Z M 13.562 0 C 11.719 0 10.234 -0.578 9.109 -1.734 C 7.984 -2.891 7.422 -4.32 7.422 -6.031 L 7.422 -63.25 C 7.422 -64.969 8.016 -66.406 9.203 -67.562 C 10.391 -68.719 11.91 -69.297 13.766 -69.297 C 15.609 -69.297 17.07 -68.719 18.156 -67.562 C 19.25 -66.406 19.797 -64.969 19.797 -63.25 L 19.797 -6.031 C 19.797 -4.32 19.234 -2.891 18.109 -1.734 C 16.992 -0.578 15.477 0 13.562 0 Z M 13.562 0 " fill="#2e435e" /></g><g transform="translate(63.44, 95.261)"><path d="M 56.625 -69.391 C 58.332 -69.391 59.711 -68.812 60.766 -67.656 C 61.828 -66.5 62.359 -65.062 62.359 -63.344 L 62.359 -27.516 C 62.359 -22.035 61.188 -17.18 58.844 -12.953 C 56.5 -8.734 53.281 -5.438 49.188 -3.062 C 45.102 -0.688 40.352 0.5 34.938 0.5 C 29.531 0.5 24.766 -0.688 20.641 -3.062 C 16.516 -5.438 13.281 -8.734 10.938 -12.953 C 8.594 -17.18 7.422 -22.035 7.422 -27.516 L 7.422 -63.344 C 7.422 -65.062 8.016 -66.5 9.203 -67.656 C 10.391 -68.812 11.91 -69.391 13.766 -69.391 C 15.273 -69.391 16.641 -68.812 17.859 -67.656 C 19.086 -66.5 19.703 -65.062 19.703 -63.344 L 19.703 -27.516 C 19.703 -24.211 20.41 -21.359 21.828 -18.953 C 23.242 -16.547 25.125 -14.68 27.469 -13.359 C 29.812 -12.047 32.301 -11.391 34.938 -11.391 C 37.781 -11.391 40.422 -12.047 42.859 -13.359 C 45.297 -14.68 47.273 -16.547 48.797 -18.953 C 50.316 -21.359 51.078 -24.211 51.078 -27.516 L 51.078 -63.344 C 51.078 -65.062 51.57 -66.5 52.562 -67.656 C 53.551 -68.812 54.906 -69.391 56.625 -69.391 Z M 56.625 -69.391 " fill="#2e435e" /></g><g transform="translate(133.221, 95.261)"><path d="M 30.891 0 C 29.035 0 27.516 -0.578 26.328 -1.734 C 25.141 -2.891 24.547 -4.32 24.547 -6.031 L 24.547 -63.453 L 37.422 -63.453 L 37.422 -6.031 C 37.422 -4.32 36.805 -2.891 35.578 -1.734 C 34.359 -0.578 32.797 0 30.891 0 Z M 9 -57.906 C 7.289 -57.906 5.859 -58.43 4.703 -59.484 C 3.547 -60.547 2.969 -61.93 2.969 -63.641 C 2.969 -65.359 3.547 -66.727 4.703 -67.75 C 5.859 -68.781 7.289 -69.297 9 -69.297 L 52.953 -69.297 C 54.672 -69.297 56.109 -68.766 57.266 -67.703 C 58.422 -66.648 59 -65.266 59 -63.547 C 59 -61.828 58.422 -60.457 57.266 -59.438 C 56.109 -58.414 54.672 -57.906 52.953 -57.906 Z M 9 -57.906 " fill="#2e435e" /></g><g transform="translate(190.233, 95.261)"><path d="M 32.859 -53.75 L 11.484 -3.469 C 11.023 -2.207 10.316 -1.227 9.359 -0.531 C 8.398 0.156 7.359 0.5 6.234 0.5 C 4.453 0.5 3.129 0.004 2.266 -0.984 C 1.41 -1.973 0.984 -3.195 0.984 -4.656 C 0.984 -5.25 1.082 -5.875 1.281 -6.531 L 25.938 -65.719 C 26.457 -67.039 27.266 -68.066 28.359 -68.797 C 29.453 -69.523 30.625 -69.82 31.875 -69.688 C 33.062 -69.688 34.164 -69.336 35.188 -68.641 C 36.207 -67.953 36.953 -66.977 37.422 -65.719 L 61.766 -7.719 C 62.098 -6.863 62.266 -6.07 62.266 -5.344 C 62.266 -3.562 61.688 -2.141 60.531 -1.078 C 59.375 -0.023 58.102 0.5 56.719 0.5 C 55.531 0.5 54.457 0.133 53.5 -0.594 C 52.539 -1.32 51.801 -2.312 51.281 -3.562 L 30 -53.156 Z M 14.547 -15.547 L 20 -26.922 L 46.719 -26.922 L 48.594 -15.547 Z M 14.547 -15.547 " fill="#2e435e" /></g><g transform="translate(253.481, 95.261)"><path d="M 29.703 0.984 C 25.078 0.984 20.914 0.41 17.219 -0.734 C 13.531 -1.891 10 -3.922 6.625 -6.828 C 5.77 -7.555 5.109 -8.379 4.641 -9.297 C 4.18 -10.223 3.953 -11.148 3.953 -12.078 C 3.953 -13.598 4.492 -14.93 5.578 -16.078 C 6.672 -17.234 8.047 -17.812 9.703 -17.812 C 10.953 -17.812 12.07 -17.414 13.062 -16.625 C 15.57 -14.582 18.062 -13.031 20.531 -11.969 C 23.008 -10.914 26.066 -10.391 29.703 -10.391 C 32.141 -10.391 34.379 -10.77 36.422 -11.531 C 38.473 -12.289 40.125 -13.312 41.375 -14.594 C 42.625 -15.883 43.25 -17.352 43.25 -19 C 43.25 -20.977 42.656 -22.66 41.469 -24.047 C 40.281 -25.43 38.469 -26.602 36.031 -27.562 C 33.594 -28.52 30.488 -29.266 26.719 -29.797 C 23.156 -30.328 20.02 -31.133 17.312 -32.219 C 14.613 -33.312 12.352 -34.695 10.531 -36.375 C 8.719 -38.062 7.348 -40.039 6.422 -42.312 C 5.504 -44.594 5.047 -47.148 5.047 -49.984 C 5.047 -54.273 6.148 -57.938 8.359 -60.969 C 10.578 -64.008 13.566 -66.32 17.328 -67.906 C 21.086 -69.488 25.242 -70.281 29.797 -70.281 C 34.086 -70.281 38.062 -69.633 41.719 -68.344 C 45.383 -67.062 48.375 -65.43 50.688 -63.453 C 52.594 -61.93 53.547 -60.18 53.547 -58.203 C 53.547 -56.754 52.984 -55.438 51.859 -54.25 C 50.742 -53.062 49.426 -52.469 47.906 -52.469 C 46.914 -52.469 46.023 -52.766 45.234 -53.359 C 44.18 -54.273 42.766 -55.145 40.984 -55.969 C 39.203 -56.801 37.32 -57.492 35.344 -58.047 C 33.363 -58.609 31.516 -58.891 29.797 -58.891 C 26.953 -58.891 24.555 -58.523 22.609 -57.797 C 20.672 -57.078 19.207 -56.086 18.219 -54.828 C 17.227 -53.578 16.734 -52.129 16.734 -50.484 C 16.734 -48.504 17.305 -46.867 18.453 -45.578 C 19.609 -44.297 21.273 -43.273 23.453 -42.516 C 25.629 -41.754 28.238 -41.078 31.281 -40.484 C 35.238 -39.754 38.719 -38.895 41.719 -37.906 C 44.719 -36.914 47.207 -35.645 49.188 -34.094 C 51.176 -32.551 52.664 -30.609 53.656 -28.266 C 54.645 -25.922 55.141 -23.066 55.141 -19.703 C 55.141 -15.41 53.945 -11.711 51.562 -8.609 C 49.188 -5.504 46.066 -3.129 42.203 -1.484 C 38.348 0.16 34.18 0.984 29.703 0.984 Z M 29.703 0.984 " fill="#2e435e" /></g></g></g></svg>